<svg xmlns="http://www.w3.org/2000/svg" xmlns:xlink="http://www.w3.org/1999/xlink" version="1.1" x="0px" y="0px" viewBox="0 0 397 570" enable-background="new 0 0 397 456" xml:space="preserve"><path d="M392.846,156.844c-1.262,2.05-2.391,4.22-3.516,6.012c-2.855,4.547-5.64,9.145-8.729,13.538  c-4.45,6.328-9.446,13.652-16.912,16.633c5.871-3.407,10.288-11.256,14.251-16.655c13.959-19.019,18.786-44.658,16.715-67.844  c-0.81-9.049-2.919-18.837-6.479-27.232c-1.643,32.007-11.861,65.857-37.67,86.861c-4.135,3.366-8.656,6.151-13.441,8.409  c15.382-9.407,24.678-24.335,29.979-33.589c7.604-18.683,12.725-37.876,10.61-58.398c-2.275-22.086-21.174-52.798-31.714-55.323  c10.611,16.279,15.193,36.561,14.193,54.561c-4.137,25.508-8.752,62.895-39.725,79.755c27.344-20.354,32.956-63.007,32.725-82.755  c-0.006,0.126-0.01,0.217-0.014,0.307c0.043-3.108-0.256-25.94-13.109-46.52c-9.76-15.628-26.98-23.737-43.877-28.787  c8.822,7.817,15,17,22.99,28.631c5.947,10.027,20.379,40.458,9.77,86.009c-5.918,25.41-18.813,39.161-34.057,45.595  c15.185-9.791,27.13-26.442,30.297-46.235c2.417-15.105,4.178-42.969-3.25-64.22c-3.602-10.304-9.602-18.304-13.936-24.316  c-2.015-2.795-4.719-5.021-7.16-7.452c-8.752-8.713-19.822-14.227-31.52-17.823c-4.346-1.335-6.691-2.872-12.691-3.872  c-4.932-0.822-10,0-6,2c1.406,0.703,4.361,3.01,5.498,3.979c22.285,19.002,36.887,43.475,42.684,71.425  c2.818,13.596,5.314,24.888,3.818,37.596c-2,17-3,38-33,51c-2.176,0.943-4.364,1.72-6.555,2.341  c-0.268-0.022-0.536-0.037-0.803-0.061c-1.613,0.23-3.217,0.353-4.811,0.419c-2.042-0.105-4.051-0.355-6.022-0.728  c-0.465-0.285-0.937-0.562-1.394-0.854c-11.64-7.446-17.358-16.897-17.147-30.621c2.489,2.46,5.231,5.546,6.041,9.065  c-1.896-12.217-5.374-25.65-15.551-33.783c7.833-0.033,15.636-0.625,23.429-1.37c-10.654-3.261-20.304-8.977-30.303-13.746  c9.063-1.526,18.166-3.691,26.224-8.258c-10.495-0.686-21.309-1.07-31.546-3.691c-3.143-0.804-8.787-2.048-11.023-4.804  c-0.359-0.443-1.055-0.76-1.521-1.094c5.015-5.791,9.157-13.853,1.411-19.335c1.216,11.961-5.004,14.551-15.544,13.909  c-14.136-0.86-30.773-2.572-43.705,4.439c-2.906,1.576-7.383,4.192-8.072,7.798c-10.517,4.114-21.069,9.21-24.853,20.654  c0.169,0.587,24.669,0.233,36.993,0.655c9.51,0.326,19.948,0.446,28.84,4.26c21.368,9.164,12.096,36.662,2.244,51.136  c-0.629,0.924-1.28,1.827-1.944,2.718c-0.124,0.038-0.24,0.085-0.365,0.122c-1.314,1.04-2.718,1.849-4.227,2.526  c-25.774,3.342-46.32-2.585-63.992-28.54c-2.859-4.2-5.625-8.706-7.185-13.479c-1.424-4.356-3.315-10.155-4.315-19.155  c-0.569-5.124,0.05-20.931,1-26c3-16,15.75-51.549,45.474-74.18c1.721-1.31,8.526-4.82,8.526-6.82c-3-1-6-1-13,1  c-4.338,1.273-8.743,2.355-13.002,3.854c-15.551,5.473-26.822,15.888-38.746,32.307c-10.076,18.581-26.488,52.904-2.002,101  c8.966,17.612,21.418,28.143,34.598,33.738c-15.292-4.3-30.126-14.492-40.24-34.36C52.003,91.1,72.529,45.325,72.133,45.817  c0.083-0.201,5.375-12.148,9.214-18.622c2.18-3.674,5.075-7.872,8-11c2.724-2.912,10.408-8.842,13-12  C83.976,8.364,66.532,19.804,56.503,36.287C41.347,61.195,44.348,90.356,44.347,90.195c-0.521,10.54,1,37,23.141,70  c6.123,9.126,14.204,17.058,23.325,22.634c-10.246-4.729-19.465-12.01-26.572-22.012c-22.395-31.518-23.108-62-24.108-75  c-0.03-10.067,0.88-17.514,2.102-27.537c1.196-9.825,4.669-19.372,7.471-30.324C35.493,46.074,23.002,63.403,20.638,86.451  c-2.328,22.688,3.568,43.074,13.954,62.713c-0.288-0.402-0.563-0.807-0.842-1.211c4.424,8.341,14.111,26.711,31.224,39.484  c-11.507-6.292-21.728-14.927-28.935-25.547c-13.922-20.517-17.906-40.073-20.906-56.073c-0.74-3.947-2.214-25.061-3-29  C5.648,93.591,0.891,111.435,3.39,129.505c2.129,15.398,6.957,31.114,15.766,44.045c4.895,7.185,10.965,13.433,17.033,19.62  c-9.434-5.192-16.938-13.073-22.899-21.947c-4.982-7.417-7.584-16.051-12.283-23.502c-0.433,31.905,18.601,66.855,48.011,80.632  c9.784,4.583,20.135,7.885,30.38,11.258c-15.229-0.111-29.208-1.683-40.913-12.25c0.61,9.898,9.239,14.977,16.808,19.963  c7.75,5.106,16.595,8.344,25.591,10.504c10.771,2.585,22.042,3.328,33.085,3.664c10.708,0.326,21.809-0.874,32.354,1.449  c10.3,2.271,19.31,8.701,24.979,17.549c-5.61,10.412-11.186,20.896-12.745,32.778c-1.299,9.896-0.321,19.841,0.772,29.703  c0.781,7.041,1.511,14.085,2.181,21.138c8.923-10.627,9.795-26.297,11.503-39.391c1.66,5.729-0.157,13.246-0.25,19.068  c-0.142,8.958,0.636,17.919,2.217,26.734c3.312,18.464,11.365,35.948,13.735,54.528c0.698,5.47,0.83,10.95,0.398,16.448  c-0.351,4.473-2.743,9.751-0.995,14.104c9.518-13.755,13.802-25.475,12.375-42.345c-1.433-16.938-4.902-33.237-7.87-49.915  c-1.633-9.182-1.355-18.158-0.414-27.396c-0.92,22.896,7.677,45.204,16.719,65.921c2.433-14.803,7.082-28.936,10.193-43.57  c3.257-15.32,2.897-29.078-1.905-44.004c6.963,4.84,9.364,13.688,10.632,21.686c8.215-13.545,5.188-24.18,1.186-38.701  c-3.945-14.318-2.623-27.615,13.008-33.111c13.876-4.878,29.514-2.785,43.926-2.899c15.704-0.124,31.944-1.563,46.718-7.239  c13.819-5.311,22.448-14.473,29.415-27.215c-15.859,9.379-30.485,16.285-49.242,12.486c17.11-3.693,34.1-7.869,48.304-18.636  c14.032-10.637,25.427-25.957,31.084-42.666c2.873-8.485,3.882-17.29,4.585-26.175C395.318,153.119,394.024,154.929,392.846,156.844  z"/><text x="0" y="471" fill="#000000" font-size="5px" font-weight="bold" font-family="'Helvetica Neue', Helvetica, Arial-Unicode, Arial, Sans-serif">Created by Design Rails</text><text x="0" y="476" fill="#000000" font-size="5px" font-weight="bold" font-family="'Helvetica Neue', Helvetica, Arial-Unicode, Arial, Sans-serif">from the Noun Project</text></svg>